<svg id="Layer_1" data-name="Layer 1" xmlns="http://www.w3.org/2000/svg" viewBox="0 0 122.88 122.88"><title>smiling-line</title><path d="M61.44,0h0V0a61.4,61.4,0,0,1,61.43,61.42h0a61.42,61.42,0,0,1-61.42,61.43h0A61.4,61.4,0,0,1,0,61.45H0A61.39,61.39,0,0,1,61.44,0V0ZM33.17,41.06A3.34,3.34,0,0,1,28,36.84,12.83,12.83,0,0,1,29.8,35a19.51,19.51,0,0,1,11.11-4,17.91,17.91,0,0,1,12.34,3.74A15.81,15.81,0,0,1,55.5,37a3.35,3.35,0,1,1-5.18,4.25A8.23,8.23,0,0,0,49,40a11.37,11.37,0,0,0-7.79-2.26A12.73,12.73,0,0,0,34,40.22a5.87,5.87,0,0,0-.87.84Zm40.8,0a3.34,3.34,0,0,1-5.18-4.22,12.76,12.76,0,0,1,1.8-1.8A19.56,19.56,0,0,1,81.7,31a17.92,17.92,0,0,1,12.35,3.74A16.35,16.35,0,0,1,96.3,37a3.35,3.35,0,1,1-5.18,4.25A8.68,8.68,0,0,0,89.84,40,11.38,11.38,0,0,0,82,37.7a12.75,12.75,0,0,0-7.21,2.52,6.28,6.28,0,0,0-.86.84ZM26.49,75.33a3.34,3.34,0,1,1,5.86-3.19,32.49,32.49,0,0,0,15.84,14.2,38.09,38.09,0,0,0,16.15,3.07,34.41,34.41,0,0,0,15.38-4,27.12,27.12,0,0,0,12.1-13.15A3.34,3.34,0,0,1,98,74.88a33.74,33.74,0,0,1-15,16.37,41,41,0,0,1-18.39,4.83,44.81,44.81,0,0,1-19-3.61,39.08,39.08,0,0,1-19-17.14Zm35-67.5h0A53.64,53.64,0,0,0,7.83,61.44h0a53.65,53.65,0,0,0,53.61,53.61v0h0v0a53.65,53.65,0,0,0,53.6-53.62h0A53.64,53.64,0,0,0,61.44,7.83Z"/></svg>
<svg id="Layer_1" data-name="Layer 1" xmlns="http://www.w3.org/2000/svg" viewBox="0 0 122.88 122.88"><defs><style>.cls-1{fill:#fbd433;}.cls-1,.cls-2{fill-rule:evenodd;}.cls-2{fill:#141518;}</style></defs><title>smiley</title><path class="cls-1" d="M45.54,2.11A61.42,61.42,0,1,1,2.11,77.34,61.42,61.42,0,0,1,45.54,2.11Z"/><path class="cls-2" d="M45.78,32.27c4.3,0,7.79,5,7.79,11.27s-3.49,11.27-7.79,11.27S38,49.77,38,43.54s3.48-11.27,7.78-11.27Z"/><path class="cls-2" d="M77.1,32.27c4.3,0,7.78,5,7.78,11.27S81.4,54.81,77.1,54.81s-7.79-5-7.79-11.27S72.8,32.27,77.1,32.27Z"/><path d="M28.8,70.82a39.65,39.65,0,0,0,8.83,8.41,42.72,42.72,0,0,0,25,7.53,40.44,40.44,0,0,0,24.12-8.12,35.75,35.75,0,0,0,7.49-7.87.22.22,0,0,1,.31,0L97,73.14a.21.21,0,0,1,0,.29A45.87,45.87,0,0,1,82.89,88.58,37.67,37.67,0,0,1,62.83,95a39,39,0,0,1-20.68-5.55A50.52,50.52,0,0,1,25.9,73.57a.23.23,0,0,1,0-.28l2.52-2.5a.22.22,0,0,1,.32,0l0,0Z"/></svg>